<svg xmlns="http://www.w3.org/2000/svg"
 xmlns:xlink="http://www.w3.org/1999/xlink"
  aria-hidden="true"
  role="img"  viewBox="0 0 65 70.08872833705496">
<g
    transform="translate(-178.34954233575527, -175.80475086827727) scale(0.8236312947564232)"
    class="css-1e98oqk"
    fill="#ef9a9a"
>
    <g xmlns="http://www.w3.org/2000/svg">
    <path d="M237.318,283.843h-5.652l1.109-6.701c0.101-0.604-0.171-1.213-0.652-1.478c-0.171-0.097-0.363-0.149-0.555-0.149   c-0.417,0-0.802,0.233-1.031,0.623l-6.897,11.948c-0.226,0.39-0.259,0.896-0.089,1.325c0.194,0.49,0.633,0.806,1.118,0.806h5.652   l-1.109,6.693c-0.103,0.602,0.162,1.211,0.647,1.485c0.17,0.099,0.364,0.153,0.559,0.153c0.41,0,0.792-0.229,1.033-0.627   l6.9-11.957c0.224-0.396,0.256-0.888,0.084-1.322C238.233,284.158,237.795,283.843,237.318,283.843z"></path>
    <path d="M288.815,254.5c-0.36,0-0.652,0.293-0.652,0.652v20.467c-0.004,5.934-4.832,10.759-10.767,10.759h-22.961   c-0.313-2.001-2.051-3.537-4.14-3.537h-1.612c-0.321-0.607-0.958-1.023-1.69-1.023c-1.053,0-1.911,0.857-1.911,1.91v0.291h-1.864   c-0.36,0-0.652,0.293-0.652,0.652c0,0.361,0.292,0.652,0.652,0.652h1.864v3.415h-1.864c-0.36,0-0.652,0.293-0.652,0.652   c0,0.36,0.292,0.652,0.652,0.652h1.864v0.291c0,1.056,0.857,1.911,1.911,1.911c0.732,0,1.37-0.414,1.69-1.021h1.612   c2.089,0,3.827-1.536,4.14-3.54h22.961c6.656,0,12.071-5.415,12.071-12.069v-20.462C289.467,254.793,289.174,254.5,288.815,254.5z    M247.597,290.334c0,0.335-0.272,0.605-0.605,0.605c-0.334,0-0.606-0.271-0.606-0.605v-6.606c0-0.334,0.272-0.605,0.606-0.605   c0.333,0,0.605,0.271,0.605,0.605V290.334z"></path>
    <path d="M293.2,234.913c-3.717-7.646-8.209-11.195-12.988-10.263c-3.649,0.717-6.738,3.927-8.272,6.46   c-0.995,1.639-1.303,2.876-1.167,3.333c0.101,0.347-0.097,0.708-0.441,0.811c-0.346,0.103-0.709-0.095-0.812-0.442   c-0.268-0.911,0.178-2.186,0.658-3.187c-9.07-2.371-9.895-7.464-9.926-7.686c-0.051-0.356,0.197-0.686,0.556-0.736   c0.355-0.052,0.684,0.196,0.736,0.55c0.013,0.075,0.848,4.591,9.274,6.688c0-0.002,0.003-0.006,0.004-0.008   c1.607-2.648,4.53-5.702,8.133-6.809c-5.393-6.716-15.854-15.414-29.555-6.125c2.441,1.625,3.899,3.503,4,3.635   c0.22,0.287,0.164,0.697-0.123,0.915c-0.285,0.218-0.695,0.164-0.914-0.123c-0.039-0.05-3.987-5.122-9.676-5.497   c-3.5-0.231-6.97,1.344-10.308,4.683c-2.71,2.71-3.776,5.29-3.169,7.667c1.443,5.645,11.626,8.688,11.729,8.718   c0.347,0.101,0.544,0.462,0.444,0.809c-0.084,0.286-0.345,0.47-0.626,0.47c-0.062,0-0.123-0.01-0.185-0.028   c-0.447-0.13-11.001-3.29-12.625-9.646c-0.212-0.83-0.263-1.672-0.153-2.524c-3.73,1.057-9.212,3.288-10.802,7.521   c-0.992,2.638-0.347,5.775,1.914,9.332c2.042-3.02,4.63-4.656,4.748-4.731c0.306-0.19,0.708-0.097,0.9,0.209   c0.19,0.306,0.097,0.707-0.208,0.898c-0.03,0.019-2.939,1.866-4.863,5.152c-2.323,3.983-3.344,10.481,4.979,18.806   c4.407,4.405,8.871,6.638,13.272,6.638h0.048c4.317-0.017,7.734-2.183,9.844-4.005c-2.632-0.088-4.417-0.264-4.677-0.289   c-0.358-0.037-0.619-0.358-0.582-0.716c0.038-0.358,0.356-0.621,0.716-0.582c0.233,0.022,23.434,2.295,30.732-5.864   c1.134-1.268,1.817-2.742,2.056-4.406c0-0.006,0-0.012,0.002-0.017c0.172-1.212,0.108-2.522-0.197-3.93   c-0.511-2.358-1.778-4.132-3.771-5.275c-6.412-3.68-18.313,0.044-18.806,0.203c-0.53,0.203-6.366,2.391-12.314,2.623   c0.539,1.282,1.366,3.683,1.256,6.094c2.679-0.769,10.308-2.528,16.064,0.331c0.322,0.161,0.455,0.552,0.295,0.874   c-0.16,0.323-0.552,0.455-0.874,0.295c-5.753-2.855-13.887-0.628-15.671-0.08c-0.153,0.679-0.4,1.344-0.775,1.963   c-1.432,2.359-4.358,3.557-8.699,3.557c-0.36,0-0.652-0.291-0.652-0.652c0-0.36,0.292-0.652,0.652-0.652   c3.853,0,6.405-0.984,7.583-2.929c1.815-2.992-0.01-7.499-0.599-8.785c-3.353-0.06-6.608-0.843-8.833-3.068   c-0.253-0.254-0.253-0.667,0-0.923c0.255-0.253,0.667-0.253,0.923,0c5.931,5.931,21.041,0.188,21.194,0.128   c0.009-0.003,0.021-0.007,0.032-0.011c0.119-0.039,0.859-0.278,2.009-0.572c-2.229-1.865-4.479-4.605-4.699-8.156   c-1.624-0.857-8.129-4.597-8.852-9.792c-0.051-0.356,0.199-0.686,0.555-0.736c0.356-0.049,0.686,0.199,0.736,0.557   c0.567,4.071,5.521,7.307,7.588,8.493c0.078-0.804,0.259-1.62,0.548-2.44c0.119-0.341,0.492-0.52,0.831-0.4   c0.339,0.119,0.519,0.492,0.399,0.833c-0.361,1.027-0.535,2.041-0.518,3.016c0.003,0.037,0.005,0.074,0.002,0.112   c0.101,3.644,2.729,6.406,5.025,8.132c4.309-0.939,11.496-1.871,16.249,0.854c1.061,0.609,1.944,1.372,2.648,2.278   c6.135-2.936,8.307-7.441,8.329-7.486c0.152-0.326,0.54-0.468,0.866-0.315s0.466,0.542,0.313,0.869   c-0.096,0.205-2.358,4.898-8.779,8.03c0.46,0.825,0.801,1.744,1.02,2.755c0.281,1.297,0.376,2.523,0.294,3.68   c4.502-0.082,13.658-0.925,16.963-6.215C296.164,244.647,295.826,240.317,293.2,234.913z"></path>
    </g>
</g>
</svg>
